<svg viewBox="0 0 464 464.00046" xmlns="http://www.w3.org/2000/svg"><path d="m464 232c-.585938 55.570312-21.375 109.027344-58.480469 150.398438-43.464843 50.820312-106.65625 80.539062-173.519531 81.601562-13.023438.027344-26.015625-1.203125-38.800781-3.679688-15.957031-2.839843-31.546875-7.453124-46.480469-13.761718-79.117188-33.359375-139.039062-110.480469-145.917969-197.597656-.5625-5.601563-.800781-11.28125-.800781-16.960938 1.378906-74.316406 37.804688-143.609375 98.238281-186.878906 38.636719-28.921875 85.503907-44.730469 133.761719-45.121094 33.222656.121094 65.984375 7.753906 95.839844 22.320312 51.257812 24.800782 92.296875 66.660157 116.082031 118.398438 13.105469 28.652344 19.953125 59.773438 20.078125 91.28125zm0 0" fill="#87cee9"/><g fill="#55b56a"><path d="m403.199219 78.878906-19.199219 25.121094-72-16-40 16-40-16 40-32 40-16 15.839844-17.679688c28.539062 13.808594 54.128906 33.015626 75.359375 56.558594zm0 0"/><path d="m464 232c-.585938 55.570312-21.375 109.027344-58.480469 150.398438l-21.519531-14.398438-16-32-8-32-8-48-32-16-32 8-40-24-8-48 24-32h40l24 24 40-8h48l27.921875-19.28125c13.105469 28.652344 19.953125 59.773438 20.078125 91.28125zm0 0"/><path d="m280 320v24h-40l-24 32 16 24-32 32-6.800781 28.320312c-15.957031-2.839843-31.546875-7.453124-46.480469-13.761718l13.28125-14.558594v-72h-32l-8-32-24-24 16-24 8-24 32-8 24 32 24-16 40 16-8 32zm0 0"/><path d="m184 56-8 40-24 16-8 24-16 24h-24l-48 32-8 16 8 24 32 8 8 16h-86.71875c-.242188-2.558594-3.761719-4.800781-8.480469-7.039062-.5625-5.601563-.800781-11.28125-.800781-16.960938 1.378906-74.316406 37.804688-143.609375 98.238281-186.878906l21.761719 10.878906zm0 0"/></g></svg>